HIERARCHY
ROOT Hips
{
  OFFSET -2.50873 97.2745 1.66981
  CHANNELS 6 Xposition Yposition Zposition Zrotation Xrotation Yrotation
  JOINT Spine
  {
    OFFSET 0 10.1816 0.1315
    CHANNELS 6 Xposition Yposition Zposition Zrotation Xrotation Yrotation
    JOINT Spine1
    {
      OFFSET 0 10.0835 -1.0008
      CHANNELS 6 Xposition Yposition Zposition Zrotation Xrotation Yrotation
      JOINT Spine2
      {
        OFFSET 0 9.1 -1.3734
        CHANNELS 6 Xposition Yposition Zposition Zrotation Xrotation Yrotation
        JOINT Neck
        {
          OFFSET 0 16.6717 -2.5162
          CHANNELS 6 Xposition Yposition Zposition Zrotation Xrotation Yrotation
          JOINT Head
          {
            OFFSET 0 9.6179 1.685
            CHANNELS 6 Xposition Yposition Zposition Zrotation Xrotation Yrotation
            JOINT HeadTop_End
            {
              OFFSET 0 17.8152 2.585
              CHANNELS 6 Xposition Yposition Zposition Zrotation Xrotation Yrotation
              End Site
              {
                OFFSET 0 0 0
              }
            }
            JOINT LeftEye
            {
              OFFSET 3.0676 6.4095 9.2836
              CHANNELS 6 Xposition Yposition Zposition Zrotation Xrotation Yrotation
              End Site
              {
                OFFSET 0 0 0
              }
            }
            JOINT RightEye
            {
              OFFSET -3.0676 6.4095 9.2835
              CHANNELS 6 Xposition Yposition Zposition Zrotation Xrotation Yrotation
              End Site
              {
                OFFSET 0 0 0
              }
            }
          }
        }
        JOINT LeftShoulder
        {
          OFFSET 4.5704 10.946 -2.628
          CHANNELS 6 Xposition Yposition Zposition Zrotation Xrotation Yrotation
          JOINT LeftArm
          {
            OFFSET 10.5924 -0.5246 -2.2321
            CHANNELS 6 Xposition Yposition Zposition Zrotation Xrotation Yrotation
            JOINT LeftForeArm
            {
              OFFSET 27.8415 -0.0001 0
              CHANNELS 6 Xposition Yposition Zposition Zrotation Xrotation Yrotation
              JOINT LeftHand
              {
                OFFSET 28.3288 0 0
                CHANNELS 6 Xposition Yposition Zposition Zrotation Xrotation Yrotation
                JOINT LeftHandThumb1
                {
                  OFFSET 2.4661 -1.575 2.6824
                  CHANNELS 6 Xposition Yposition Zposition Zrotation Xrotation Yrotation
                  JOINT LeftHandThumb2
                  {
                    OFFSET 3.2298 -1.8647 1.8647
                    CHANNELS 6 Xposition Yposition Zposition Zrotation Xrotation Yrotation
                    JOINT LeftHandThumb3
                    {
                      OFFSET 2.6526 -1.5315 1.5315
                      CHANNELS 6 Xposition Yposition Zposition Zrotation Xrotation Yrotation
                      End Site
                      {
                        OFFSET 1.9546 -1.1285 1.1285
                      }
                    }
                  }
                }
                JOINT LeftHandIndex1
                {
                  OFFSET 9.1093 -0.5171 2.2601
                  CHANNELS 6 Xposition Yposition Zposition Zrotation Xrotation Yrotation
                  JOINT LeftHandIndex2
                  {
                    OFFSET 3.6764 0 0
                    CHANNELS 6 Xposition Yposition Zposition Zrotation Xrotation Yrotation
                    JOINT LeftHandIndex3
                    {
                      OFFSET 2.8831 0 0
                      CHANNELS 6 Xposition Yposition Zposition Zrotation Xrotation Yrotation
                      End Site
                      {
                        OFFSET 2.3927 0 0
                      }
                    }
                  }
                }
                JOINT LeftHandMiddle1
                {
                  OFFSET 9.5334 0 0
                  CHANNELS 6 Xposition Yposition Zposition Zrotation Xrotation Yrotation
                  JOINT LeftHandMiddle2
                  {
                    OFFSET 3.6982 0 0
                    CHANNELS 6 Xposition Yposition Zposition Zrotation Xrotation Yrotation
                    JOINT LeftHandMiddle3
                    {
                      OFFSET 2.9509 0 0
                      CHANNELS 6 Xposition Yposition Zposition Zrotation Xrotation Yrotation
                      End Site
                      {
                        OFFSET 2.8339 0 0
                      }
                    }
                  }
                }
                JOINT LeftHandRing1
                {
                  OFFSET 9.1045 -0.0439 -1.8651
                  CHANNELS 6 Xposition Yposition Zposition Zrotation Xrotation Yrotation
                  JOINT LeftHandRing2
                  {
                    OFFSET 3.154 0 0
                    CHANNELS 6 Xposition Yposition Zposition Zrotation Xrotation Yrotation
                    JOINT LeftHandRing3
                    {
                      OFFSET 2.9377 0 0
                      CHANNELS 6 Xposition Yposition Zposition Zrotation Xrotation Yrotation
                      End Site
                      {
                        OFFSET 2.6475 0 0
                      }
                    }
                  }
                }
                JOINT LeftHandPinky1
                {
                  OFFSET 8.0778 -0.4887 -3.8061
                  CHANNELS 6 Xposition Yposition Zposition Zrotation Xrotation Yrotation
                  JOINT LeftHandPinky2
                  {
                    OFFSET 3.6 0 0
                    CHANNELS 6 Xposition Yposition Zposition Zrotation Xrotation Yrotation
                    JOINT LeftHandPinky3
                    {
                      OFFSET 2.1142 0 0
                      CHANNELS 6 Xposition Yposition Zposition Zrotation Xrotation Yrotation
                      End Site
                      {
                        OFFSET 1.9757 0 0
                      }
                    }
                  }
                }
              }
            }
          }
        }
        JOINT RightShoulder
        {
          OFFSET -4.57 10.9462 -2.628
          CHANNELS 6 Xposition Yposition Zposition Zrotation Xrotation Yrotation
          JOINT RightArm
          {
            OFFSET -10.5928 -0.5248 -2.2321
            CHANNELS 6 Xposition Yposition Zposition Zrotation Xrotation Yrotation
            JOINT RightForeArm
            {
              OFFSET -27.8415 0 0
              CHANNELS 6 Xposition Yposition Zposition Zrotation Xrotation Yrotation
              JOINT RightHand
              {
                OFFSET -28.3288 0 0.0001
                CHANNELS 6 Xposition Yposition Zposition Zrotation Xrotation Yrotation
                JOINT RightHandPinky1
                {
                  OFFSET -8.0767 -0.4885 -3.806
                  CHANNELS 6 Xposition Yposition Zposition Zrotation Xrotation Yrotation
                  JOINT RightHandPinky2
                  {
                    OFFSET -3.6 0 0.0001
                    CHANNELS 6 Xposition Yposition Zposition Zrotation Xrotation Yrotation
                    JOINT RightHandPinky3
                    {
                      OFFSET -2.1142 0 0
                      CHANNELS 6 Xposition Yposition Zposition Zrotation Xrotation Yrotation
                      End Site
                      {
                        OFFSET -1.9757 0 0
                      }
                    }
                  }
                }
                JOINT RightHandRing1
                {
                  OFFSET -9.1036 -0.0439 -1.8651
                  CHANNELS 6 Xposition Yposition Zposition Zrotation Xrotation Yrotation
                  JOINT RightHandRing2
                  {
                    OFFSET -3.154 0 0
                    CHANNELS 6 Xposition Yposition Zposition Zrotation Xrotation Yrotation
                    JOINT RightHandRing3
                    {
                      OFFSET -2.9377 0 0
                      CHANNELS 6 Xposition Yposition Zposition Zrotation Xrotation Yrotation
                      End Site
                      {
                        OFFSET -2.6475 0 0
                      }
                    }
                  }
                }
                JOINT RightHandMiddle1
                {
                  OFFSET -9.5325 0 0
                  CHANNELS 6 Xposition Yposition Zposition Zrotation Xrotation Yrotation
                  JOINT RightHandMiddle2
                  {
                    OFFSET -3.6982 0 0
                    CHANNELS 6 Xposition Yposition Zposition Zrotation Xrotation Yrotation
                    JOINT RightHandMiddle3
                    {
                      OFFSET -2.9509 0 0
                      CHANNELS 6 Xposition Yposition Zposition Zrotation Xrotation Yrotation
                      End Site
                      {
                        OFFSET -2.8339 0 0.0001
                      }
                    }
                  }
                }
                JOINT RightHandIndex1
                {
                  OFFSET -9.1083 -0.5168 2.2601
                  CHANNELS 6 Xposition Yposition Zposition Zrotation Xrotation Yrotation
                  JOINT RightHandIndex2
                  {
                    OFFSET -3.6764 0 0
                    CHANNELS 6 Xposition Yposition Zposition Zrotation Xrotation Yrotation
                    JOINT RightHandIndex3
                    {
                      OFFSET -2.8831 0 0
                      CHANNELS 6 Xposition Yposition Zposition Zrotation Xrotation Yrotation
                      End Site
                      {
                        OFFSET -2.3927 0 0
                      }
                    }
                  }
                }
                JOINT RightHandThumb1
                {
                  OFFSET -2.4648 -1.5727 2.6826
                  CHANNELS 6 Xposition Yposition Zposition Zrotation Xrotation Yrotation
                  JOINT RightHandThumb2
                  {
                    OFFSET -3.2298 -1.8647 1.8647
                    CHANNELS 6 Xposition Yposition Zposition Zrotation Xrotation Yrotation
                    JOINT RightHandThumb3
                    {
                      OFFSET -2.6526 -1.5314 1.5314
                      CHANNELS 6 Xposition Yposition Zposition Zrotation Xrotation Yrotation
                      End Site
                      {
                        OFFSET -1.9546 -1.1285 1.1285
                      }
                    }
                  }
                }
              }
            }
          }
        }
      }
    }
  }
  JOINT LeftUpLeg
  {
    OFFSET 8.2078 -6.7517 -1.5996
    CHANNELS 6 Xposition Yposition Zposition Zrotation Xrotation Yrotation
    JOINT LeftLeg
    {
      OFFSET 0 -44.3705 0.2846
      CHANNELS 6 Xposition Yposition Zposition Zrotation Xrotation Yrotation
      JOINT LeftFoot
      {
        OFFSET 0 -44.4279 -2.9822
        CHANNELS 6 Xposition Yposition Zposition Zrotation Xrotation Yrotation
        JOINT LeftToeBase
        {
          OFFSET 0 -8.7287 10.7106
          CHANNELS 6 Xposition Yposition Zposition Zrotation Xrotation Yrotation
          End Site
          {
            OFFSET 0 -0.0007 9.2781
          }
        }
      }
    }
  }
  JOINT RightUpLeg
  {
    OFFSET -8.2078 -6.7517 -1.5996
    CHANNELS 6 Xposition Yposition Zposition Zrotation Xrotation Yrotation
    JOINT RightLeg
    {
      OFFSET 0 -44.3705 0.2862
      CHANNELS 6 Xposition Yposition Zposition Zrotation Xrotation Yrotation
      JOINT RightFoot
      {
        OFFSET 0 -44.4277 -2.9838
        CHANNELS 6 Xposition Yposition Zposition Zrotation Xrotation Yrotation
        JOINT RightToeBase
        {
          OFFSET 0 -8.7287 10.7106
          CHANNELS 6 Xposition Yposition Zposition Zrotation Xrotation Yrotation
          End Site
          {
            OFFSET 0 -0.0007 9.2781
          }
        }
      }
    }
  }
}
MOTION
Frames:	4
Frame Time:	0.0333333
-1.51156 96.8826 1.56881 -2.42866 -2.76357 -37.646 1.11022e-016 10.1816 0.1315 -2.16799 6.37394 11.155 0 10.0835 -1.0008 -0.444273 2.69799 4.29219 8.88178e-016 9.1 -1.3734 -0.434644 2.67317 4.30838 0 16.6717 -2.5162 1.06513 8.14933 -0.593007 2.22045e-016 9.6179 1.685 -7.09562 5.08723 5.91706 0 17.8152 2.585 -7.95139e-016 6.36111e-015 -0 3.0676 6.4095 9.2836 -7.95139e-016 6.36111e-015 -0 -3.0676 6.4095 9.2835 -7.95139e-016 6.36111e-015 -0 4.5704 10.946 -2.628 -1.2477 0.270616 1.5378 10.5924 -0.5246 -2.2321 -49.3988 -3.76668 -47.7876 27.8415 -0.0001 0 -0.000213623 -1.65927e-014 -120.741 28.3288 -1.42109e-014 3.55271e-015 26.3037 1.87988 -16.279 2.4661 -1.575 2.6824 1.8797 5.14177 7.82184 3.2298 -1.8647 1.8647 -12.9692 0.640437 37.8061 2.6526 -1.5315 1.5315 1.30691 21.0356 66.6022 9.1093 -0.5171 2.2601 -85.2259 -6.32939 8.24873 3.6764 0 0 -118.295 -10.1553 6.07659 2.8831 1.42109e-014 0 -107.207 -8.93737 6.59451 9.5334 7.10543e-015 0 -86.4925 -6.48336 6.89196 3.6982 0 -1.77636e-015 -110.505 -9.31022 6.46555 2.9509 0 0 -108.772 -9.11534 6.53599 9.1045 -0.0439 -1.8651 -89.4465 -6.8237 3.14587 3.154 0 1.77636e-015 -107.012 -8.91518 6.60143 2.9377 0 0 -103.174 -8.47189 6.72237 8.0778 -0.4887 -3.8061 -94.0369 -7.35161 0.60885 3.6 0 1.77636e-015 -99.0676 -3.93024 7.45322 2.1142 0 0 -123.632 -10.6991 5.74482 -4.57 10.9462 -2.628 -2.63809 1.18763 5.08165 -10.5928 -0.5248 -2.2321 53.2242 -3.83223 54.3646 -27.8415 0 -1.42109e-014 -2.0431e-006 7.62733e-006 119.991 -28.3288 0 0.0001 -27.7899 -14.8884 13.0405 -8.0767 -0.4885 -3.806 94.5432 -7.40981 3.44802 -3.6 -2.84217e-014 0.0001 98.6067 -8.01069 -6.89398 -2.1142 1.42109e-014 0 123.615 -10.8017 -5.80223 -9.1036 -0.0439 -1.8651 91.9575 -7.18056 -1.66028 -3.154 0 0 100.92 -8.28822 -6.84578 -2.9377 0 0 103.158 -8.54543 -6.78862 -9.5325 0 0 86.4935 -6.54705 -6.94915 -3.6982 -2.84217e-014 0 110.471 -9.3974 -6.53035 -2.9509 -1.42109e-014 0 108.755 -9.1945 -6.60262 -9.1083 -0.5168 2.2601 85.0052 -6.35658 -10.0477 -3.6764 -2.84217e-014 0 118.278 -10.2526 -6.13712 -2.8831 0 -3.55271e-015 107.189 -9.02275 -6.65977 -2.4648 -1.5727 2.6826 3.57269 1.45283 -10.183 -3.2298 -1.8647 1.8647 6.36 22.0303 -33.2844 -2.6526 -1.5314 1.5314 11.7584 20.5194 -59.1358 8.2078 -6.7517 -1.5996 9.68893 -26.71 2.12355 3.55271e-015 -44.3705 0.2846 2.91535 29.7118 -1.28321 0 -44.4279 -2.9822 -10.8822 0.993904 0.584556 3.55271e-015 -8.7287 10.7106 -1.72519e-006 -1.97899e-005 1.54808e-005 -8.2078 -6.7517 -1.5996 -7.08366 6.48312 -14.6999 0 -44.3705 0.2862 -1.86038 27.0414 -3.98262 0 -44.4277 -2.9838 12.857 -26.6272 2.69674 0 -8.7287 10.7106 2.66826e-006 -0.969715 -1.28083e-005 
-1.5559 96.9001 1.58993 -2.42502 -2.71686 -37.5974 -1.11022e-016 10.1816 0.1315 -2.20537 6.35786 11.1632 -8.88178e-016 10.0835 -1.0008 -0.459863 2.69006 4.29521 0 9.1 -1.3734 -0.450427 2.66518 4.31141 -4.44089e-016 16.6717 -2.5162 1.02129 8.07062 -0.578582 0 9.6179 1.685 -7.02983 5.04225 5.86578 0 17.8152 2.585 0 0 -1.59028e-015 3.0676 6.4095 9.2836 0 0 -1.59028e-015 -3.0676 6.4095 9.2835 0 0 -1.59028e-015 4.5704 10.946 -2.628 -1.31005 0.267073 1.57621 10.5924 -0.5246 -2.2321 -49.2367 -3.76746 -48.1214 27.8415 -0.0001 0 -0.000198364 -3.58977e-015 -120.771 28.3288 1.42109e-014 3.55271e-015 26.0413 1.85766 -16.1103 2.4661 -1.575 2.6824 1.8797 5.14177 7.82184 3.2298 -1.8647 1.8647 -12.9692 0.640437 37.8061 2.6526 -1.5315 1.5315 1.30691 21.0356 66.6022 9.1093 -0.5171 2.2601 -85.2259 -6.32939 8.24873 3.6764 0 1.77636e-015 -118.295 -10.1553 6.07659 2.8831 1.42109e-014 0 -107.207 -8.93737 6.59451 9.5334 -7.10543e-015 0 -86.4925 -6.48336 6.89196 3.6982 0 1.77636e-015 -110.505 -9.31022 6.46555 2.9509 0 0 -108.772 -9.11534 6.53599 9.1045 -0.0439 -1.8651 -89.4465 -6.8237 3.14587 3.154 0 0 -107.012 -8.91518 6.60143 2.9377 -1.42109e-014 0 -103.174 -8.47189 6.72237 8.0778 -0.4887 -3.8061 -94.0369 -7.35161 0.60885 3.6 -2.84217e-014 -3.55271e-015 -99.0676 -3.93024 7.45322 2.1142 0 -7.10543e-015 -123.632 -10.6991 5.74482 -4.57 10.9462 -2.628 -2.67844 1.16768 4.9742 -10.5928 -0.5248 -2.2321 53.2856 -3.68031 54.4862 -27.8415 0 0 1.32258e-005 7.60981e-006 119.915 -28.3288 0 0.0001 -27.6425 -14.6047 13.3053 -8.0767 -0.4885 -3.806 94.5432 -7.40981 3.44802 -3.6 2.84217e-014 0.0001 98.6067 -8.01069 -6.89398 -2.1142 0 -3.55271e-015 123.615 -10.8017 -5.80223 -9.1036 -0.0439 -1.8651 91.9575 -7.18056 -1.66028 -3.154 0 0 100.92 -8.28822 -6.84578 -2.9377 0 -3.55271e-015 103.158 -8.54543 -6.78862 -9.5325 0 3.55271e-015 86.4935 -6.54705 -6.94915 -3.6982 -2.84217e-014 0 110.471 -9.3974 -6.53035 -2.9509 0 0 108.755 -9.1945 -6.60262 -9.1083 -0.5168 2.2601 85.0052 -6.35658 -10.0477 -3.6764 -2.84217e-014 0 118.278 -10.2526 -6.13712 -2.8831 0 0 107.189 -9.02275 -6.65977 -2.4648 -1.5727 2.6826 3.57269 1.45283 -10.183 -3.2298 -1.8647 1.8647 6.36 22.0303 -33.2844 -2.6526 -1.5314 1.5314 11.7584 20.5194 -59.1358 8.2078 -6.7517 -1.5996 9.73568 -26.7102 2.10343 -3.55271e-015 -44.3705 0.2846 2.87282 29.6689 -1.28956 -3.55271e-015 -44.4279 -2.9822 -10.8768 0.990679 0.584895 -3.55271e-015 -8.7287 10.7106 7.0089e-007 -5.26483e-005 3.18055e-015 -8.2078 -6.7517 -1.5996 -6.99921 6.54704 -14.7101 0 -44.3705 0.2862 -1.85924 26.8864 -4.0871 0 -44.4277 -2.9838 12.8696 -26.5689 2.69411 0 -8.7287 10.7106 3.25507e-006 -0.979658 1.17865e-005 
-1.63276 96.8983 1.60978 -2.40665 -2.65955 -37.6179 -2.22045e-016 10.1816 0.1315 -2.25939 6.33725 11.1658 0 10.0835 -1.0008 -0.485547 2.68184 4.29592 0 9.1 -1.3734 -0.47621 2.65717 4.31198 0 16.6717 -2.5162 1.02154 7.99206 -0.568912 -4.44089e-016 9.6179 1.685 -6.99067 5.07073 5.88429 1.77636e-015 17.8152 2.585 1.59028e-015 -3.18055e-015 1.59028e-015 3.0676 6.4095 9.2836 1.59028e-015 -3.18055e-015 1.59028e-015 -3.0676 6.4095 9.2835 1.59028e-015 -3.18055e-015 1.59028e-015 4.5704 10.946 -2.628 -1.37979 0.267888 1.58427 10.5924 -0.5246 -2.2321 -49.1186 -3.78552 -48.4653 27.8415 -0.0001 7.10543e-015 -0.000198364 -3.81092e-013 -120.77 28.3288 0 -3.55271e-015 25.8102 1.83644 -15.9286 2.4661 -1.575 2.6824 1.8797 5.14177 7.82184 3.2298 -1.8647 1.8647 -12.9692 0.640437 37.8061 2.6526 -1.5315 1.5315 1.30691 21.0356 66.6022 9.1093 -0.5171 2.2601 -85.2259 -6.32939 8.24873 3.6764 2.84217e-014 0 -118.295 -10.1553 6.07659 2.8831 0 0 -107.207 -8.93737 6.59451 9.5334 0 0 -86.4925 -6.48336 6.89196 3.6982 0 1.77636e-015 -110.505 -9.31022 6.46555 2.9509 1.42109e-014 0 -108.772 -9.11534 6.53599 9.1045 -0.0439 -1.8651 -89.4465 -6.8237 3.14587 3.154 -2.84217e-014 1.77636e-015 -107.012 -8.91518 6.60143 2.9377 0 0 -103.174 -8.47189 6.72237 8.0778 -0.4887 -3.8061 -94.0369 -7.35161 0.60885 3.6 0 -1.77636e-015 -99.0676 -3.93024 7.45322 2.1142 0 0 -123.632 -10.6991 5.74482 -4.57 10.9462 -2.628 -2.72208 1.15234 4.90236 -10.5928 -0.5248 -2.2321 53.3452 -3.52403 54.6369 -27.8415 -1.42109e-014 0 2.84898e-005 7.60073e-006 119.876 -28.3288 0 0.0001 -27.7403 -14.3882 13.4097 -8.0767 -0.4885 -3.806 94.5432 -7.40981 3.44802 -3.6 0 0.0001 98.6067 -8.01069 -6.89398 -2.1142 0 0 123.615 -10.8017 -5.80223 -9.1036 -0.0439 -1.8651 91.9575 -7.18056 -1.66028 -3.154 0 0 100.92 -8.28822 -6.84578 -2.9377 1.42109e-014 0 103.158 -8.54543 -6.78862 -9.5325 -7.10543e-015 0 86.4935 -6.54705 -6.94915 -3.6982 2.84217e-014 0 110.471 -9.3974 -6.53035 -2.9509 -1.42109e-014 7.10543e-015 108.755 -9.1945 -6.60262 -9.1083 -0.5168 2.2601 85.0052 -6.35658 -10.0477 -3.6764 0 0 118.278 -10.2526 -6.13712 -2.8831 -1.42109e-014 3.55271e-015 107.189 -9.02275 -6.65977 -2.4648 -1.5727 2.6826 3.57269 1.45283 -10.183 -3.2298 -1.8647 1.8647 6.36 22.0303 -33.2844 -2.6526 -1.5314 1.5314 11.7584 20.5194 -59.1358 8.2078 -6.7517 -1.5996 9.8402 -26.7432 2.14937 0 -44.3705 0.2846 2.80699 29.7124 -1.26523 0 -44.4279 -2.9822 -10.8818 0.9332 0.579763 -3.55271e-015 -8.7287 10.7106 -5.42268e-006 -1.03645e-005 2.70347e-013 -8.2078 -6.7517 -1.5996 -6.94734 6.55438 -14.711 0 -44.3705 0.2862 -1.8363 26.8237 -4.14465 0 -44.4277 -2.9838 12.8575 -26.5703 2.69238 -3.55271e-015 -8.7287 10.7106 1.20883e-006 -0.990257 2.94838e-006 
-1.74005 96.8883 1.63173 -2.37031 -2.58439 -37.6662 0 10.1816 0.1315 -2.32391 6.30212 11.1714 -8.88178e-016 10.0835 -1.0008 -0.51884 2.66789 4.29788 0 9.1 -1.3734 -0.50961 2.64366 4.31365 0 16.6717 -2.5162 1.06797 7.91338 -0.560782 8.88178e-016 9.6179 1.685 -6.98582 5.194 5.99401 3.55271e-015 17.8152 2.585 -7.95139e-016 3.18055e-015 -0 3.0676 6.4095 9.2836 -7.95139e-016 3.18055e-015 -0 -3.0676 6.4095 9.2835 -7.95139e-016 3.18055e-015 -0 4.5704 10.946 -2.628 -1.44474 0.272481 1.56379 10.5924 -0.5246 -2.2321 -49.0483 -3.79315 -48.7798 27.8415 -0.0001 -1.42109e-014 -0.000226738 7.79886e-006 -120.738 28.3288 -1.42109e-014 0 25.6295 1.77425 -15.7535 2.4661 -1.575 2.6824 1.8797 5.14177 7.82184 3.2298 -1.8647 1.8647 -12.9692 0.640437 37.8061 2.6526 -1.5315 1.5315 1.30691 21.0356 66.6022 9.1093 -0.5171 2.2601 -85.2259 -6.32939 8.24873 3.6764 0 0 -118.295 -10.1553 6.07659 2.8831 -1.42109e-014 0 -107.207 -8.93737 6.59451 9.5334 0 0 -86.4925 -6.48336 6.89196 3.6982 2.84217e-014 -1.77636e-015 -110.505 -9.31022 6.46555 2.9509 0 7.10543e-015 -108.772 -9.11534 6.53599 9.1045 -0.0439 -1.8651 -89.4465 -6.8237 3.14587 3.154 2.84217e-014 1.77636e-015 -107.012 -8.91518 6.60143 2.9377 1.42109e-014 7.10543e-015 -103.174 -8.47189 6.72237 8.0778 -0.4887 -3.8061 -94.0369 -7.35161 0.60885 3.6 0 1.77636e-015 -99.0676 -3.93024 7.45322 2.1142 0 0 -123.632 -10.6991 5.74482 -4.57 10.9462 -2.628 -2.75808 1.14164 4.85772 -10.5928 -0.5248 -2.2321 53.4094 -3.36568 54.8001 -27.8415 -1.42109e-014 -7.10543e-015 3.05176e-005 -2.88132e-014 119.841 -28.3288 0 0.0001 -27.938 -14.2633 13.4495 -8.0767 -0.4885 -3.806 94.5432 -7.40981 3.44802 -3.6 5.68434e-014 0.0001 98.6067 -8.01069 -6.89398 -2.1142 0 0 123.615 -10.8017 -5.80223 -9.1036 -0.0439 -1.8651 91.9575 -7.18056 -1.66028 -3.154 -2.84217e-014 0 100.92 -8.28822 -6.84578 -2.9377 0 0 103.158 -8.54543 -6.78862 -9.5325 -7.10543e-015 0 86.4935 -6.54705 -6.94915 -3.6982 0 0 110.471 -9.3974 -6.53035 -2.9509 1.42109e-014 -3.55271e-015 108.755 -9.1945 -6.60262 -9.1083 -0.5168 2.2601 85.0052 -6.35658 -10.0477 -3.6764 0 0 118.278 -10.2526 -6.13712 -2.8831 1.42109e-014 3.55271e-015 107.189 -9.02275 -6.65977 -2.4648 -1.5727 2.6826 3.57269 1.45283 -10.183 -3.2298 -1.8647 1.8647 6.36 22.0303 -33.2844 -2.6526 -1.5314 1.5314 11.7584 20.5194 -59.1358 8.2078 -6.7517 -1.5996 9.97077 -26.8006 2.21987 3.55271e-015 -44.3705 0.2846 2.73962 29.7916 -1.22046 0 -44.4279 -2.9822 -10.9031 0.848091 0.573262 0 -8.7287 10.7106 6.55591e-007 -2.57049e-005 -7.02257e-006 -8.2078 -6.7517 -1.5996 -6.88727 6.52773 -14.7292 0 -44.3705 0.2862 -1.83856 26.7902 -4.1865 3.55271e-015 -44.4277 -2.9838 12.8536 -26.5947 2.69479 0 -8.7287 10.7106 3.02283e-007 -1.00085 3.22074e-005 
